HIERARCHY
ROOT Hips
{
    OFFSET 0.000000 0.000000 0.000000
    CHANNELS 6 Xposition Yposition Zposition Zrotation Xrotation Yrotation
    JOINT Spine
    {
        OFFSET -0.000000 14.517291 0.000000
        CHANNELS 3 Zrotation Xrotation Yrotation
        JOINT Spine1
        {
            OFFSET -0.000000 37.558300 0.000000
            CHANNELS 3 Zrotation Xrotation Yrotation
            JOINT Neck
            {
                OFFSET -0.000000 37.404057 3.400369
                CHANNELS 3 Zrotation Xrotation Yrotation
                JOINT Head
                {
                    OFFSET -0.000000 24.785618 -3.540803
                    CHANNELS 3 Zrotation Xrotation Yrotation
                    End Site
                    {
                        OFFSET -0.000000 35.408028 0.000000
                    }
                }
            }
            JOINT LeftShoulder
            {
                OFFSET 6.992933 33.973492 -0.192664
                CHANNELS 3 Zrotation Xrotation Yrotation
                JOINT LeftArm
                {
                    OFFSET 21.527611 0.000000 0.000000
                    CHANNELS 3 Zrotation Xrotation Yrotation
                    JOINT LeftForeArm
                    {
                        OFFSET 56.353916 0.000000 0.000000
                        CHANNELS 3 Zrotation Xrotation Yrotation
                        JOINT LeftHand
                        {
                            OFFSET 47.774071 0.000000 0.000000
                            CHANNELS 3 Zrotation Xrotation Yrotation
                            End Site
                            {
                                OFFSET 26.556021 0.000000 0.000000
                            }
                        }
                    }
                }
            }
            JOINT RightShoulder
            {
                OFFSET -7.065357 33.973492 -0.192664
                CHANNELS 3 Zrotation Xrotation Yrotation
                JOINT RightArm
                {
                    OFFSET -21.527611 0.000000 0.000000
                    CHANNELS 3 Zrotation Xrotation Yrotation
                    JOINT RightForeArm
                    {
                        OFFSET -56.353916 0.000000 0.000000
                        CHANNELS 3 Zrotation Xrotation Yrotation
                        JOINT RightHand
                        {
                            OFFSET -47.774071 0.000000 0.000000
                            CHANNELS 3 Zrotation Xrotation Yrotation
                            End Site
                            {
                                OFFSET -26.556021 0.000000 0.000000
                            }
                        }
                    }
                }
            }
        }
    }
    JOINT LeftUpLeg
    {
        OFFSET 17.704014 0.000000 0.000000
        CHANNELS 3 Zrotation Xrotation Yrotation
        JOINT LeftLeg
        {
            OFFSET -0.000000 -81.181816 0.000000
            CHANNELS 3 Zrotation Xrotation Yrotation
            JOINT LeftFoot
            {
                OFFSET -0.000000 -62.821102 0.000000
                CHANNELS 3 Zrotation Xrotation Yrotation
                JOINT LeftToeBase
                {
                    OFFSET -0.000000 -11.507608 26.556021
                    CHANNELS 3 Zrotation Xrotation Yrotation
                    End Site
                    {
                        OFFSET -0.000000 0.000000 7.081605
                    }
                }
            }
        }
    }
    JOINT RightUpLeg
    {
        OFFSET -17.704014 0.000000 0.000000
        CHANNELS 3 Zrotation Xrotation Yrotation
        JOINT RightLeg
        {
            OFFSET -0.000000 -81.181816 0.000000
            CHANNELS 3 Zrotation Xrotation Yrotation
            JOINT RightFoot
            {
                OFFSET -0.000000 -62.821102 0.000000
                CHANNELS 3 Zrotation Xrotation Yrotation
                JOINT RightToeBase
                {
                    OFFSET -0.000000 -11.507608 26.556021
                    CHANNELS 3 Zrotation Xrotation Yrotation
                    End Site
                    {
                        OFFSET -0.000000 0.000000 7.081605
                    }
                }
            }
        }
    }
}
MOTION
Frames:    12
Frame Time:    0.008333
-0.540006    157.131332    -77.723587    -0.701253    -4.467438    36.235737    -1.883317    -0.372941    -1.221795    -0.958275    0.347578    -0.404363    1.405390    6.746285    -16.930222    12.133142    -6.660367    -15.379406    0.956387    9.493444    -13.229980    -35.644966    23.453983    -40.423748    -6.184978    -27.838608    -121.706383    -14.137946    -35.873230    -13.352372    1.283112    12.130771    -6.744740    33.625996    20.206718    42.504620    -6.515639    8.496740    42.716331    -19.322433    5.223245    33.351734    18.734503    11.513295    -2.725363    -6.933298    10.064428    -19.474167    -2.744888    -20.967379    40.985203    0.000000    0.000000    0.000000    -13.527349    -8.585706    -11.040200    3.330884    3.652994    -13.573216    7.457285    12.948351    -13.980777    0.000000    0.000000    0.000000    
-0.521682    157.129471    -77.780022    -0.668276    -4.408719    36.247375    -1.916925    -0.372177    -1.220314    -0.971688    0.321489    -0.403960    1.404735    6.748103    -16.936321    12.106039    -6.705458    -15.386336    0.957331    9.495056    -13.237741    -35.633316    23.437944    -40.419098    -6.182896    -27.814264    -121.712616    -14.146008    -35.848198    -13.353287    1.275457    12.109977    -6.767750    33.621254    20.226418    42.495800    -6.536067    8.450125    42.757160    -19.305077    5.201239    33.303612    18.652981    11.472697    -2.632936    -6.915579    10.067966    -19.541153    -2.750112    -20.955534    40.966209    0.000000    0.000000    0.000000    -13.612066    -8.624721    -11.051230    3.334240    3.660444    -13.613988    7.484223    12.943683    -13.970149    0.000000    0.000000    0.000000    
-0.505586    157.131897    -77.832458    -0.626213    -4.359087    36.262463    -1.952444    -0.366595    -1.228950    -0.988226    0.305187    -0.406980    1.398339    6.743672    -16.941292    12.086823    -6.727973    -15.392476    0.957806    9.494873    -13.239146    -35.622894    23.427999    -40.411526    -6.194998    -27.801027    -121.721909    -14.138100    -35.854881    -13.368241    1.270813    12.100288    -6.778417    33.612217    20.234941    42.504753    -6.548340    8.414125    42.766708    -19.325603    5.169187    33.276264    18.578440    11.447968    -2.555058    -6.911010    10.061020    -19.583334    -2.756953    -20.921473    40.922413    0.000000    0.000000    0.000000    -13.695138    -8.645654    -11.047274    3.336864    3.656816    -13.650556    7.501741    12.954396    -13.974617    0.000000    0.000000    0.000000    
-0.495547    157.134979    -77.886276    -0.593054    -4.303527    36.283020    -1.982885    -0.364100    -1.239221    -1.015067    0.281355    -0.410562    1.392774    6.721563    -16.940100    12.078143    -6.723128    -15.393198    0.974459    9.501199    -13.241909    -35.608223    23.432135    -40.414509    -6.184623    -27.807577    -121.720726    -14.171466    -35.839504    -13.393163    1.275259    12.090363    -6.786796    33.613182    20.240416    42.504234    -6.573152    8.385938    42.769409    -19.314196    5.156306    33.265270    18.505636    11.403142    -2.428186    -6.894474    10.073644    -19.672609    -2.763592    -20.894688    40.880180    0.000000    0.000000    0.000000    -13.774801    -8.680243    -11.040421    3.334076    3.666127    -13.682714    7.528190    12.953696    -13.968011    0.000000    0.000000    0.000000    
-0.493450    157.140747    -77.931038    -0.564775    -4.255522    36.307388    -2.016645    -0.363057    -1.250910    -1.027449    0.265967    -0.414517    1.386820    6.704685    -16.944859    12.070300    -6.726373    -15.399070    0.980805    9.502696    -13.243269    -35.593075    23.430399    -40.417042    -6.198349    -27.798677    -121.728569    -14.165010    -35.854309    -13.386155    1.271987    12.076207    -6.793845    33.603786    20.258987    42.510010    -6.594433    8.359795    42.756256    -19.311298    5.140512    33.253521    18.460030    11.359191    -2.362487    -6.908426    10.081330    -19.697264    -2.778506    -20.859011    40.805840    0.000000    0.000000    0.000000    -13.841421    -8.707090    -11.011622    3.333507    3.668767    -13.757702    7.571756    12.956595    -13.967932    0.000000    0.000000    0.000000    
-0.497234    157.145432    -77.977829    -0.540782    -4.210687    36.342388    -2.047392    -0.347820    -1.270506    -1.043566    0.229085    -0.421371    1.382349    6.697040    -16.950592    12.077932    -6.719109    -15.404024    0.999204    9.522715    -13.238626    -35.577366    23.436460    -40.439888    -6.197746    -27.805552    -121.723068    -14.156805    -35.859116    -13.391839    1.281568    12.068415    -6.804627    33.596359    20.263142    42.513012    -6.598302    8.349949    42.734985    -19.313742    5.122285    33.294617    18.417913    11.292271    -2.268313    -6.902139    10.132890    -19.808277    -2.784563    -20.850620    40.783550    0.000000    0.000000    0.000000    -13.903377    -8.736033    -10.997045    3.328277    3.679893    -13.817146    7.611261    12.955457    -13.968049    0.000000    0.000000    0.000000    
-0.501070    157.151108    -78.021309    -0.515165    -4.176121    36.382641    -2.065122    -0.328193    -1.294007    -1.063802    0.205949    -0.429545    1.522502    6.761662    -16.985489    11.834732    -6.859859    -15.485487    1.003996    9.522767    -13.231435    -35.556648    23.461473    -40.450634    -6.185143    -27.832912    -121.718857    -14.156224    -35.864067    -13.400218    1.276866    12.062099    -6.807533    33.602314    20.255613    42.515259    -6.590247    8.343381    42.730865    -19.307714    5.121490    33.254513    18.390366    11.227672    -2.224435    -6.925097    10.189705    -19.852459    -2.776832    -20.838633    40.742023    0.000000    0.000000    0.000000    -13.963686    -8.754304    -10.969195    3.330751    3.695569    -13.892581    7.654284    12.950973    -13.982077    0.000000    0.000000    0.000000    
-0.510871    157.157593    -78.059525    -0.493342    -4.149088    36.438152    -2.084583    -0.301833    -1.326487    -1.085435    0.175987    -0.440696    1.535371    6.752731    -16.992132    11.826590    -6.858647    -15.495451    1.024165    9.523272    -13.236432    -35.546669    23.486450    -40.464104    -6.181619    -27.864807    -121.718102    -14.168973    -35.887516    -13.392304    1.285018    12.056122    -6.808872    33.592110    20.271999    42.512554    -6.611228    8.320518    42.719940    -19.314541    5.107262    33.236004    18.378603    11.143731    -2.204057    -6.946877    10.286856    -19.941570    -2.772047    -20.854275    40.741989    0.000000    0.000000    0.000000    -14.013597    -8.759384    -10.956943    3.329218    3.699057    -13.963620    7.677514    12.963345    -13.974751    0.000000    0.000000    0.000000    
-0.524668    157.161972    -78.096573    -0.478663    -4.130436    36.498871    -2.095471    -0.267407    -1.358579    -1.101588    0.133978    -0.451971    1.538868    6.749924    -16.997931    11.829793    -6.848543    -15.502250    1.038786    9.537365    -13.245592    -35.528084    23.509989    -40.481804    -6.164283    -27.907196    -121.711006    -14.188514    -35.896904    -13.401254    1.291658    12.054508    -6.807546    33.594257    20.251345    42.499840    -6.580489    8.333799    42.703537    -19.307587    5.106874    33.250778    18.382750    11.025291    -1.955431    -6.946457    10.488479    -20.224072    -2.741829    -20.890284    40.709518    0.000000    0.000000    0.000000    -14.055061    -8.761724    -10.933571    3.333789    3.706127    -14.038125    7.721063    12.972207    -13.998248    0.000000    0.000000    0.000000    
-0.537674    157.161270    -78.129517    -0.466873    -4.118719    36.554508    -2.094221    -0.235995    -1.385011    -1.130583    0.105486    -0.461246    1.546676    6.722445    -16.997538    11.832371    -6.818036    -15.505519    1.060235    9.536909    -13.259533    -35.519569    23.531956    -40.491734    -6.149590    -27.943726    -121.707077    -14.187970    -35.908047    -13.402859    1.299145    12.047224    -6.804003    33.591774    20.251270    42.484047    -6.574033    8.329757    42.703854    -19.328938    5.097250    33.231976    18.395012    10.924938    -1.965776    -6.993127    10.635404    -20.287785    -2.690367    -20.922449    40.726494    0.000000    0.000000    0.000000    -14.090411    -8.764708    -10.911745    3.341627    3.726393    -14.062111    7.752653    12.952670    -14.037787    0.000000    0.000000    0.000000    
-0.545126    157.145981    -78.129898    -0.464042    -4.144073    36.613556    -2.078860    -0.224499    -1.409293    -1.137273    0.123006    -0.469292    1.543424    6.725056    -17.011059    11.851051    -6.821082    -15.515368    1.068970    9.539352    -13.286072    -35.505600    23.538784    -40.497780    -6.139974    -27.973557    -121.707077    -14.179250    -35.922390    -13.399946    1.299362    12.041831    -6.804162    33.588379    20.241301    42.464420    -6.565392    8.345325    42.708118    -19.339462    5.107060    33.229599    18.457354    10.861448    -1.996984    -7.055216    10.774896    -20.371262    -2.625032    -20.984215    40.761993    0.000000    0.000000    0.000000    -14.088143    -8.725435    -10.893875    3.346697    3.729806    -14.105988    7.781284    12.915394    -14.061675    0.000000    0.000000    0.000000    
-0.558449    157.140060    -78.161697    -0.461916    -4.143543    36.665070    -2.064289    -0.188182    -1.425125    -1.154787    0.085658    -0.475033    1.547974    6.716781    -17.020504    11.842525    -6.798566    -15.529739    1.075350    9.552537    -13.311781    -35.489044    23.547529    -40.514153    -6.127012    -28.010609    -121.702286    -14.185838    -35.934502    -13.411223    1.298440    12.039675    -6.804750    33.576984    20.227377    42.444023    -6.538382    8.359135    42.721699    -19.341095    5.113857    33.213078    18.485285    10.777749    -2.295373    -7.147164    10.854911    -20.191425    -2.579416    -21.027496    40.819187    0.000000    0.000000    0.000000    -14.108334    -8.728960    -10.885306    3.350975    3.754547    -14.095247    7.817874    12.897449    -14.121282    0.000000    0.000000    0.000000    
